<?xml version="1.0" encoding="iso-8859-1"?>
<!-- Generator: Adobe Illustrator 19.0.0, SVG Export Plug-In . SVG Version: 6.00 Build 0)  -->
<svg xmlns="http://www.w3.org/2000/svg" xmlns:xlink="http://www.w3.org/1999/xlink" version="1.1" id="Layer_1" x="0px" y="0px" viewBox="0 0 512.042 512.042" style="enable-background:new 0 0 512.042 512.042;" xml:space="preserve" width="512px" height="512px">
<g>
	<g>
		<path style="fill: #9badcb" d="M426.687,0H85.397C38.244,0,0.021,38.223,0.021,85.376v405.291c0,18.329,21.588,28.125,35.381,16.055L192.021,369.68    l156.619,137.041c13.794,12.07,35.381,2.274,35.381-16.055V256h106.667c11.782,0,21.333-9.551,21.333-21.333V85.333    C512.021,38.202,473.819,0,426.687,0z M341.354,443.653L206.069,325.278c-8.043-7.038-20.053-7.038-28.096,0L42.687,443.653    V85.376c0-23.589,19.121-42.709,42.709-42.709h267.372c-0.307,0.532-0.601,1.072-0.898,1.611    c-0.097,0.177-0.198,0.351-0.294,0.528c-0.573,1.06-1.122,2.136-1.651,3.223c-0.125,0.256-0.245,0.514-0.367,0.771    c-0.463,0.976-0.91,1.961-1.337,2.957c-0.07,0.162-0.144,0.323-0.212,0.485c-0.472,1.121-0.916,2.257-1.341,3.402    c-0.102,0.274-0.2,0.55-0.299,0.825c-0.376,1.046-0.735,2.1-1.071,3.164c-0.045,0.142-0.094,0.282-0.138,0.424    c-0.364,1.175-0.697,2.364-1.011,3.561c-0.076,0.291-0.149,0.583-0.222,0.875c-0.281,1.12-0.545,2.248-0.781,3.385    c-0.023,0.11-0.05,0.218-0.072,0.328c-0.25,1.224-0.465,2.461-0.661,3.704c-0.048,0.305-0.094,0.611-0.139,0.917    c-0.177,1.204-0.336,2.413-0.462,3.632c-0.006,0.062-0.015,0.123-0.022,0.185c-0.128,1.269-0.219,2.549-0.292,3.834    c-0.018,0.316-0.033,0.632-0.048,0.949c-0.058,1.296-0.099,2.596-0.099,3.907v149.333V443.653z M469.354,213.333h-85.333v-128    c0-23.567,19.099-42.667,42.667-42.667s42.667,19.099,42.667,42.667V213.333z" fill="#FFFFFF"/>
	</g>
</g>
</svg>
