<?xml version="1.0" encoding="iso-8859-1"?>
<!-- Generator: Adobe Illustrator 19.0.0, SVG Export Plug-In . SVG Version: 6.00 Build 0)  -->
<svg xmlns="http://www.w3.org/2000/svg" xmlns:xlink="http://www.w3.org/1999/xlink" version="1.1" id="Layer_1" x="0px" y="0px" viewBox="0 0 512.006 512.006" style="enable-background:new 0 0 512.006 512.006;" xml:space="preserve" width="512px" height="512px">
<g>
	<g>
		<path style="fill: #9badcb" d="M505.02,218.888l-57.017-51.834V21.333C448.003,9.551,438.452,0,426.67,0h-85.333c-11.782,0-21.333,9.551-21.333,21.333    V50.69L272.574,7.573l-2.221-2.019c-1.526-1.387-3.202-2.514-4.973-3.381c-0.079-0.038-0.161-0.066-0.24-0.104    c-5.772-2.738-12.503-2.738-18.276,0c-0.079,0.037-0.161,0.065-0.24,0.104c-1.771,0.867-3.447,1.994-4.973,3.381l-2.189,1.99    L6.986,218.888c-8.718,7.925-9.361,21.418-1.435,30.136c7.925,8.718,21.418,9.361,30.136,1.435l6.983-6.348v246.563    c0,11.782,9.551,21.333,21.333,21.333H170.67h170.667h106.667c11.782,0,21.333-9.551,21.333-21.333V244.11l6.983,6.348    c8.718,7.926,22.21,7.283,30.136-1.435C514.381,240.305,513.738,226.813,505.02,218.888z M362.67,42.667h42.667v85.6    L362.67,89.478V42.667z M213.337,469.34V320.006c0-11.791,9.542-21.333,21.333-21.333h42.667c11.791,0,21.333,9.542,21.333,21.333    V469.34H213.337z M426.67,469.34h-85.333V320.006c0-35.355-28.645-64-64-64H234.67c-35.355,0-64,28.645-64,64V469.34H85.337    V205.326L256.003,50.171l70.872,64.431c0.038,0.035,0.073,0.072,0.111,0.107l49.073,44.608l50.61,46.01V469.34z" fill="#FFFFFF"/>
	</g>
</g>
</svg>
