<?xml version="1.0" encoding="utf-8"?>
<!-- Generator: Adobe Illustrator 19.1.0, SVG Export Plug-In . SVG Version: 6.00 Build 0)  -->
<svg version="1.1" id="Camada_1" xmlns="http://www.w3.org/2000/svg" xmlns:xlink="http://www.w3.org/1999/xlink" x="0px" y="0px"
	 viewBox="0 0 94.3 94.3" style="enable-background:new 0 0 94.3 94.3;" xml:space="preserve">
<style type="text/css">
	.st0{fill:#FFFFFF;}
</style>
<g>
	<g>
		<path class="st0" d="M51.6,55.9c-25.6,0-46.4-10.7-46.4-24c0-0.6,0-1.3,0.1-1.9c-2.9,3.1-4.5,6.7-4.5,10.4c0,13.2,20.8,24,46.4,24
			c24.4,0,44.3-9.7,46.2-22.1C86,50.3,70.1,55.9,51.6,55.9z"/>
	</g>
	<path class="st0" d="M13.4,18.2v24.4c4.9,3.7,11.7,6.6,19.7,8.4V18.2c0-6.6,2.4-8.4,10.7-9v-3H2.6v3C11.1,9.8,13.4,11.4,13.4,18.2z
		"/>
	<path class="st0" d="M33.1,76.3V66.1c-7.6-1.3-14.3-3.5-19.7-6.5v16.7c0,6.2-1.9,7.9-10.8,8.9v3h41.1v-3
		C35,84.1,33.1,82.7,33.1,76.3z"/>
	<path class="st0" d="M61.4,18.2v34.3c7.4-0.8,14.1-2.5,19.7-4.9V18.2c0-6.6,2.4-8.4,10.7-9v-3H50.6v3C59.1,9.8,61.4,11.4,61.4,18.2
		z"/>
	<path class="st0" d="M81.1,76.3V59.9c-5.3,2.9-12.1,5.2-19.7,6.4v9.9c0,6.2-1.9,7.9-10.8,8.9v3h41.1v-3
		C83,84.1,81.1,82.7,81.1,76.3z"/>
</g>
</svg>
