<?xml version="1.0" encoding="utf-8"?>
<!-- Generator: Adobe Illustrator 19.1.0, SVG Export Plug-In . SVG Version: 6.00 Build 0)  -->
<svg version="1.1" id="Camada_1" xmlns="http://www.w3.org/2000/svg" xmlns:xlink="http://www.w3.org/1999/xlink" x="0px" y="0px"
	 viewBox="0 0 185.8 26.5" style="enable-background:new 0 0 185.8 26.5;" xml:space="preserve">
<g style="fill: #fff">
	<path d="M14.6,25.2v-0.9c2.6-0.3,3.2-0.8,3.2-2.6v-8.1H9.1v8.1c0,1.9,0.6,2.3,3.2,2.6v0.9h-12v-0.9c2.5-0.3,3-0.7,3-2.6v-17
		c0-2-0.6-2.4-3-2.6V1.2h12v0.9C9.8,2.2,9.1,2.7,9.1,4.7V12h8.6V4.7c0-2-0.7-2.5-3.2-2.6V1.2h12.1v0.9c-2.4,0.2-3.1,0.7-3.1,2.6v17
		c0,1.9,0.6,2.3,3.1,2.6v0.9H14.6z"/>
	<path d="M48.7,25.2H27.9v-0.9c2.6-0.3,3.1-0.9,3.1-2.7v-17c0-1.8-0.7-2.4-3.1-2.5V1.2h20.5v7.2h-0.9c-0.8-4.8-2.6-5.9-8.4-5.9
		c-1.9,0-2.3,0.6-2.3,1.9v8c3.8,0,5.3-1.2,5.8-5.3h0.9v12h-0.9c-0.4-4.2-1.9-5.5-5.8-5.5v8.6c0,1.5,0.6,2,3,2c2.8,0,4.8-0.5,6.5-1.9
		c1.2-1,1.9-2.1,2.9-4.4h1L48.7,25.2z"/>
	<path d="M70.9,8.4c-0.5-2.7-0.9-3.5-2.1-4.6c-1.1-1-2.7-1.4-5.8-1.4c-1.8,0-2.5,0.5-2.5,1.8v8.1c3.6,0,4.9-1.3,5.4-5.3h0.9v12h-0.9
		c-0.4-4.2-1.8-5.4-5.4-5.5v8.1c0,2,0.6,2.6,3.9,2.7v0.9H51.6v-0.9c2.6-0.3,3.1-0.8,3.1-2.8V4.8c0-2.1-0.7-2.6-3.1-2.7V1.2h20.2v7.2
		H70.9z"/>
	<path d="M94.2,25.2H73.3v-0.9c2.6-0.3,3.1-0.9,3.1-2.7v-17c0-1.8-0.7-2.4-3.1-2.5V1.2h20.5v7.2H93c-0.8-4.8-2.6-5.9-8.4-5.9
		c-1.9,0-2.3,0.6-2.3,1.9v8c3.8,0,5.3-1.2,5.8-5.3h0.9v12H88c-0.4-4.2-1.9-5.5-5.8-5.5v8.6c0,1.5,0.6,2,3,2c2.8,0,4.8-0.5,6.5-1.9
		c1.2-1,1.9-2.1,2.9-4.4h1L94.2,25.2z"/>
	<path d="M112.7,8.4C112,6,111.4,5,110.2,3.7c-1.3-1.3-2.8-2-4.4-2c-2.5,0-3.9,1.5-3.9,3.5c0,1.7,0.8,2.6,3.7,4.1
		c1.7,0.9,3.5,1.7,5.3,2.7c2.3,1.2,3.9,3.6,3.9,6.3c0,4.5-3.6,7.6-8.8,7.6c-1.6,0-2.9-0.2-4.6-0.9c-0.8-0.2-1.2-0.4-1.5-0.4
		c-0.6,0-0.9,0.3-1.1,1.2h-1v-8.8h1c0.6,2.5,1.1,3.8,2.1,5.1c1.4,1.7,3.1,2.6,5.1,2.6c2.7,0,4.5-1.6,4.5-4c0-1.3-0.8-2.3-2-3.1
		c-1.2-0.9-2.8-1.6-4.3-2.3c-4-1.9-6.1-3.9-6.1-7.5c0-4.5,3-7.2,7.8-7.2c1.4,0,2.5,0.2,4.2,0.8c0.7,0.2,1.2,0.4,1.5,0.4
		c0.6,0,0.9-0.2,1.1-1.2h1.1v7.8H112.7z"/>
	<path d="M137.4,8.3c-0.6-4.2-2.5-5.9-6.8-6v18.8c0,2.7,0.4,3.1,3.5,3.3v0.9h-12.7v-0.9c3.1-0.2,3.5-0.6,3.5-3.3V2.3
		c-4.4,0.1-6.3,1.8-6.9,6h-1l0.1-7.2h21.3l0.1,7.2H137.4z"/>
	<path d="M153,25.9c-7.4,0-12.6-5.2-12.6-12.6c0-7.6,5.4-12.7,12.8-12.7c7.2,0,12.4,5.3,12.4,12.7C165.6,20.7,160.4,25.9,153,25.9z
		 M152.9,1.8c-3.9,0-6.2,4.2-6.2,11.7c0,7.5,2.3,11.2,6.3,11.2c4.1,0,6.3-3.8,6.3-11.2C159.3,6,157.1,1.8,152.9,1.8z"/>
	<path d="M183.1,8.4c-0.7-2.3-1.3-3.4-2.5-4.6c-1.3-1.3-2.8-2-4.4-2c-2.5,0-3.9,1.5-3.9,3.5c0,1.7,0.8,2.6,3.7,4.1
		c1.7,0.9,3.5,1.7,5.3,2.7c2.3,1.2,3.9,3.6,3.9,6.3c0,4.5-3.6,7.6-8.8,7.6c-1.6,0-2.9-0.2-4.6-0.9c-0.8-0.2-1.2-0.4-1.5-0.4
		c-0.6,0-0.9,0.3-1.1,1.2h-1v-8.8h1c0.6,2.5,1.1,3.8,2.1,5.1c1.4,1.7,3.1,2.6,5.1,2.6c2.7,0,4.5-1.6,4.5-4c0-1.3-0.8-2.3-2-3.1
		c-1.2-0.9-2.8-1.6-4.3-2.3c-4-1.9-6.1-3.9-6.1-7.5c0-4.5,3-7.2,7.8-7.2c1.4,0,2.5,0.2,4.2,0.8c0.7,0.2,1.2,0.4,1.5,0.4
		c0.6,0,0.9-0.2,1.1-1.2h1.1v7.8H183.1z"/>
</g>
</svg>
