<?xml version="1.0" encoding="utf-8"?>
<!-- Generator: Adobe Illustrator 19.1.0, SVG Export Plug-In . SVG Version: 6.00 Build 0)  -->
<svg version="1.1" id="Camada_1" xmlns="http://www.w3.org/2000/svg" xmlns:xlink="http://www.w3.org/1999/xlink" x="0px" y="0px"
	 viewBox="-430 489 137.2 23" style="enable-background:new -430 489 137.2 23;" xml:space="preserve">
<style type="text/css">
	.st0{fill:#FFFFFF;}
</style>
<g>
	<path class="st0" d="M-429.3,510.8V510c0.7,0,1.2-0.1,1.4-0.3c0.3-0.2,0.4-0.5,0.4-0.9v-16.4c0-0.6-0.1-0.9-0.4-1.1
		c-0.2-0.2-0.7-0.3-1.4-0.3v-0.8h6.7v0.8c-0.7,0-1.2,0.1-1.5,0.3c-0.2,0.1-0.4,0.5-0.4,1.1v6.6h8.1v-6.6c0-0.6-0.1-0.9-0.4-1.1
		c-0.2-0.2-0.7-0.3-1.4-0.3v-0.8h6.7v0.8c-0.7,0-1.2,0.1-1.5,0.2c-0.2,0.1-0.4,0.4-0.4,0.9c0,0.1,0,0.1,0,0.2v16.4
		c0,0.4,0.1,0.8,0.4,0.9c0.3,0.2,0.7,0.3,1.4,0.3v0.8h-6.7V510c0.7,0,1.2-0.1,1.4-0.3c0.3-0.2,0.4-0.5,0.4-0.9v-8.2h-8v8.2
		c0,0.4,0.1,0.8,0.4,0.9c0.3,0.2,0.8,0.3,1.5,0.3v0.8H-429.3z"/>
	<path class="st0" d="M-409.6,510.8V510l9.4-9.5l-9.4-9.5v-0.8h16v3.6h-0.8c0-0.7-0.2-1.2-0.5-1.5c-0.3-0.3-0.8-0.5-1.6-0.5h-8.2
		l7.8,7.8l-8.2,8.2h8.3c0.9,0,1.5-0.2,1.9-0.6c0.4-0.4,0.6-0.9,0.6-1.5h0.8v5.1H-409.6z"/>
	<path class="st0" d="M-392.1,510.8V510c0.7,0,1.2-0.1,1.4-0.3c0.3-0.2,0.4-0.5,0.4-0.9v-16.4c0-0.6-0.1-0.9-0.4-1.1
		c-0.2-0.2-0.7-0.3-1.4-0.3v-0.8h16v3.6h-0.9c0-0.7-0.2-1.3-0.5-1.6c-0.4-0.3-0.8-0.5-1.5-0.5h-8.3v17c0,0.4,0.1,0.8,0.4,0.9
		c0.3,0.2,0.7,0.3,1.4,0.3v0.8L-392.1,510.8L-392.1,510.8z"/>
	<path class="st0" d="M-374,510.8V510l9.4-9.5l-9.4-9.5v-0.8h16v3.6h-0.8c0-0.7-0.2-1.2-0.5-1.5c-0.3-0.3-0.8-0.5-1.6-0.5h-8.2
		l7.8,7.8l-8.2,8.2h8.3c0.9,0,1.5-0.2,1.9-0.6c0.4-0.4,0.6-0.9,0.6-1.5h0.7v5.1H-374z"/>
	<path class="st0" d="M-355.5,510.8l-0.8-3.9h0.8c0.7,1,1.4,1.6,2.1,1.9c0.7,0.3,1.7,0.5,2.9,0.5c0.9,0,1.6-0.3,2.1-0.9
		s0.8-1.6,0.8-2.8c0-1.1-0.3-1.9-0.8-2.4s-1.4-1-2.6-1.5c-1.3-0.4-2.4-1.2-3.3-2.2c-0.9-1-1.3-2.4-1.3-4c0-1.5,0.5-2.8,1.5-3.7
		c1-0.9,2.2-1.4,3.7-1.4c0.7,0,1.2,0.1,1.5,0.2c0.3,0.1,0.8,0.3,1.3,0.7c0.2,0.1,0.4,0.2,0.6,0.2c0.1,0,0.2,0,0.2-0.1
		c0.1-0.1,0.1-0.2,0.1-0.3c0-0.2,0-0.4-0.1-0.7h0.9l0.7,3.1h-0.8c-1-0.8-1.6-1.3-2-1.4s-1.2-0.2-2.3-0.2c-0.7,0-1.3,0.3-1.7,0.9
		c-0.4,0.6-0.7,1.3-0.7,2.1c0,0.9,0.3,1.7,0.8,2.4c0.5,0.7,1.5,1.3,2.8,1.8c0.9,0.4,1.9,1,3,1.9c1.1,0.9,1.6,2.2,1.6,3.9
		c0,1.9-0.6,3.4-1.8,4.4s-2.6,1.5-4.1,1.5c-0.7,0-1.3,0-1.8-0.1c-0.4-0.1-0.9-0.2-1.3-0.5c-0.3-0.2-0.5-0.3-0.7-0.3
		c-0.1,0-0.2,0-0.2,0.1c-0.1,0.1-0.2,0.3-0.2,0.6c0,0.1,0,0.1,0,0.2C-354.6,510.8-355.5,510.8-355.5,510.8z"/>
	<path class="st0" d="M-337.5,510.8V510c0.7,0,1.2-0.1,1.4-0.3c0.3-0.2,0.4-0.5,0.4-0.9v-17h-4.2c-0.7,0-1.3,0.2-1.7,0.5
		c-0.4,0.3-0.7,0.8-1,1.6h-0.9l1.3-3.6h16.2l1.3,3.6h-0.9c-0.3-0.8-0.6-1.3-1-1.6c-0.4-0.3-1-0.5-1.8-0.5h-4.2v17
		c0,0.4,0.1,0.8,0.4,0.9c0.3,0.2,0.7,0.3,1.4,0.3v0.8H-337.5z"/>
	<path class="st0" d="M-315.5,490.2c2.8,0,5.2,1,7.3,3c2.1,2,3,4.4,3,7.2c0,2.8-1,5.2-3,7.3c-2,2.1-4.4,3.1-7.3,3.1s-5.3-1-7.3-3.1
		c-2-2.1-3-4.5-3-7.3c0-2.9,1-5.3,3-7.2C-320.8,491.2-318.4,490.2-315.5,490.2z M-316.1,491.7c-1.8,0.2-3.4,1.1-4.8,2.8
		c-1.2,1.5-1.8,3.4-1.8,5.8c0,0.3,0,0.6,0,0.9c0.2,2.2,1,4.1,2.4,5.7c1.4,1.6,3.2,2.4,5.4,2.4c2.2-0.2,3.9-1,5-2.6
		c1.1-1.5,1.6-3.5,1.6-6.2c0-0.2,0-0.4,0-0.6c-0.2-2.3-1-4.2-2.5-5.8c-1.4-1.6-3.1-2.3-5.1-2.3C-315.9,491.7-316,491.7-316.1,491.7z
		"/>
	<path class="st0" d="M-304.4,510.8l-0.8-3.9h0.8c0.7,1,1.4,1.6,2.2,1.9c0.7,0.3,1.7,0.5,2.9,0.5c0.9,0,1.6-0.3,2.1-0.9
		s0.8-1.6,0.8-2.8c0-1.1-0.3-1.9-0.8-2.4s-1.4-1-2.6-1.5c-1.3-0.4-2.4-1.2-3.3-2.2s-1.3-2.4-1.3-4c0-1.5,0.5-2.8,1.5-3.7
		c1-0.9,2.2-1.4,3.7-1.4c0.7,0,1.2,0.1,1.5,0.2s0.8,0.3,1.3,0.7c0.2,0.1,0.4,0.2,0.6,0.2c0.1,0,0.2,0,0.2-0.1
		c0.1-0.1,0.1-0.2,0.1-0.3c0-0.2,0-0.4-0.1-0.7h0.9l0.7,3.1h-1c-1-0.8-1.6-1.3-2-1.4s-1.2-0.2-2.3-0.2c-0.7,0-1.3,0.3-1.7,0.9
		c-0.4,0.6-0.7,1.3-0.7,2.1c0,0.9,0.3,1.7,0.8,2.4c0.5,0.7,1.5,1.3,2.8,1.8c0.9,0.4,1.9,1,3,1.9c1.1,0.9,1.6,2.2,1.6,3.9
		c0,1.9-0.6,3.4-1.8,4.4s-2.6,1.5-4.1,1.5c-0.7,0-1.3,0-1.8-0.1c-0.5-0.1-0.9-0.2-1.3-0.5c-0.3-0.2-0.5-0.3-0.7-0.3
		c-0.1,0-0.2,0-0.2,0.1c-0.1,0.1-0.2,0.3-0.2,0.6c0,0.1,0,0.1,0,0.2C-303.6,510.8-304.4,510.8-304.4,510.8z"/>
</g>
</svg>
